<mxfile host="app.diagrams.net" modified="2023-04-07T12:55:15.375Z" agent="Mozilla/5.0 (Windows NT 10.0; Win64; x64) AppleWebKit/537.36 (KHTML, like Gecko) Chrome/111.0.0.0 Safari/537.36 Edg/111.0.1661.62" version="21.1.5" etag="HfPo-69mbzio-lJ4_4-r" type="github">
  <diagram name="페이지-1" id="LBkevMxW8h77y1ifERH7">
    <mxGraphModel>
      <root>
        <mxCell id="0" />
        <mxCell id="1" parent="0" />
      </root>
    </mxGraphModel>
  </diagram>
</mxfile>
